<svg version="1.1" xmlns="http://www.w3.org/2000/svg" xmlns:xlink="http://www.w3.org/1999/xlink" width="165.96335" height="191.76103" viewBox="0,0,165.96335,191.76103"><g transform="translate(-157.01833,-84.11948)"><g data-paper-data="{&quot;isPaintingLayer&quot;:true}" fill="#000000" fill-rule="nonzero" stroke="none" stroke-linecap="butt" stroke-linejoin="miter" stroke-miterlimit="10" stroke-dasharray="" stroke-dashoffset="0" style="mix-blend-mode: normal"><g><g stroke-width="1"><path d="M263.56708,195.37901l-23.64139,11.8207l-23.64139,-11.8207v-30.39607l23.64139,-11.8207l23.64139,11.8207z"/><path d="M263.56708,164.98293v30.39607l-23.64139,11.8207l-23.64139,-11.8207v-30.39607l23.64139,11.8207z"/><path d="M263.56708,164.98293v30.39607l-23.64139,11.8207v-30.39607z"/></g><path d="M157.01833,228.48559v-79.41441l14.58655,8.75851v70.65591z" stroke-width="0"/><path d="M218.69813,263.58934l-60.79377,-34.73153l7.23573,-12.66537l60.79377,34.73153z" stroke-width="0"/><path d="M226.119,267.84211v-41.88103h13.93573v49.91944z" stroke-width="0"/><path d="M216.4976,262.28325v-11.32684h10.41338v17.35564z" stroke-width="0"/><path d="M237.29699,240.90005l-51.07983,-29.91023l6.47366,-12.9194l51.84191,30.16426z" stroke-width="0"/><path d="M186.18185,210.65422v-70.01544h14.58655v70.01544z" stroke-width="0"/><path d="M308.08985,228.9193v-72.89753l14.58655,-12.28106v85.17859z" data-paper-data="{&quot;index&quot;:null}" stroke-width="0"/><path d="M255.06199,250.70712l60.1432,-34.29782l7.23574,12.88222l-67.29942,38.20121z" data-paper-data="{&quot;index&quot;:null}" stroke-width="0"/><path d="M234.93787,229.30208l51.81717,-30.1348l7.32925,0.05242l0.22672,12.82981l-59.61384,33.71797z" data-paper-data="{&quot;index&quot;:null}" stroke-width="0"/><path d="M271.1645,162.10385l51.81717,-30.1348l-0.12961,17.04524l-51.92827,29.55495z" data-paper-data="{&quot;index&quot;:null}" stroke-width="0"/><path d="M239.26605,84.11949l68.70514,39.8278l-14.89282,8.22695l-61.12774,-35.43524z" stroke-width="0"/><path d="M157.78797,132.04521l80.7117,-47.34585l7.32855,12.61189l-61.49777,35.8175z" stroke-width="0"/><path d="M240.28735,118.11458l60.3791,34.38386l-14.89282,8.22695l-52.80171,-29.9913z" stroke-width="0"/><path d="M193.38422,144.90499l45.48617,-26.21054l7.32855,12.61189l-45.48617,25.24984z" stroke-width="0"/><path d="M197.94885,157.04976l-40.83241,-24.78652l15.11992,-7.47545l40.31356,23.43939z" stroke-width="0"/><g stroke-width="1"><path d="M293.70929,211.12088l-7.62979,-3.23021l-23.64139,-11.8207v-30.39607l23.64139,-11.8207l7.62979,9.25884z"/><path d=""/></g></g></g></g></svg>